<svg width="248" height="188" fill="none" viewBox="0 0 248 188" xmlns="http://www.w3.org/2000/svg"><path fill="white" d="M245.01 10.9453L244.97 10.9054L244.931 10.8654L244.891 10.8254L244.851 10.7854L244.811 10.7454L244.771 10.7054L244.731 10.6655L244.691 10.6255L244.651 10.5855L244.611 10.5455L244.571 10.5055L244.531 10.4656L244.491 10.4256L244.451 10.3856L244.411 10.3456L244.371 10.3056L244.331 10.2656L244.291 10.2257L244.251 10.1857L244.211 10.1457L244.171 10.1057L244.131 10.0657L244.091 10.0257L244.051 9.98575L244.011 9.94577L243.971 9.90579L243.931 9.86581L243.891 9.82582L243.851 9.78584L243.811 9.74586L243.771 9.70587L243.731 9.66589L243.691 9.62591L243.651 9.58592L243.611 9.54594L243.571 9.50596L243.531 9.46598L243.491 9.42599L243.451 9.38601L243.411 9.34603L243.371 9.30604L243.331 9.26606L243.291 9.22608L243.251 9.18609L243.211 9.14611L243.171 9.10613L243.131 9.06615L243.091 9.02616L243.051 8.98618L243.011 8.9462L242.971 8.90621L242.931 8.86623L242.891 8.82625L242.851 8.78627L242.811 8.74628L242.771 8.7063L242.731 8.66632L242.691 8.62633L242.651 8.58635L242.611 8.54637L242.571 8.50638L242.531 8.4664L242.491 8.42642L242.451 8.38644L242.411 8.34645L242.371 8.30647L242.331 8.26649L242.291 8.2265L242.251 8.18652L242.211 8.14654L242.171 8.10655L242.131 8.06657L242.091 8.02659L242.051 7.98661L242.011 7.94662L241.971 7.90664L241.931 7.86666L241.891 7.82667L241.851 7.78669L241.811 7.74671L241.771 7.70672L241.731 7.66674L241.691 7.62676L241.651 7.58678L241.611 7.54679L241.571 7.50681L241.531 7.46683L241.491 7.42684L241.451 7.38686L241.411 7.34688L241.371 7.30689L241.331 7.26691L241.291 7.22693L241.251 7.18695L241.211 7.14696L241.171 7.10698L241.131 7.067L241.091 7.02701L241.051 6.98703L241.011 6.94705L240.971 6.90706L240.931 6.86708L240.891 6.8271L240.851 6.78712L240.811 6.74713L240.771 6.70715L240.731 6.66717L240.691 6.62718L240.651 6.5872L240.611 6.54722L240.571 6.50723L240.531 6.46725L240.491 6.42727L240.451 6.38729L240.411 6.3473L240.371 6.30732L240.331 6.26734L240.291 6.22735L240.251 6.18737L240.211 6.14739L240.171 6.10741L240.131 6.06742L240.091 6.02744L240.051 5.98746L240.011 5.94747L239.971 5.90749L239.931 5.86751L239.891 5.82752L239.851 5.78754L239.811 5.74756L239.771 5.70758L239.731 5.66759L239.691 5.62761L239.651 5.58763L239.611 5.54764L239.571 5.50766L239.531 5.46768L239.491 5.42769L239.451 5.38771L239.411 5.34773L239.371 5.30775L239.331 5.26776L239.291 5.22778L239.251 5.1878L239.211 5.14781L239.171 5.10783L239.131 5.06785L239.091 5.02786L239.051 4.98788L239.011 4.9479L238.971 4.90792L238.931 4.86793L238.891 4.82795L238.851 4.78797L238.811 4.74798L238.771 4.708L238.732 4.66802L238.692 4.62803L238.652 4.58805L238.612 4.54807L238.572 4.50809L238.532 4.4681L238.492 4.42812L238.452 4.38814L238.412 4.34815L238.372 4.30817L238.332 4.26819L238.292 4.2282L238.252 4.18822L238.212 4.14824L238.172 4.10826L238.132 4.06827L238.092 4.02829L238.052 3.98831L238.012 3.94832L237.972 3.90834L237.932 3.86836L237.892 3.82837L237.852 3.78839L237.812 3.74841L237.772 3.70843L237.732 3.66844L237.692 3.62846L237.652 3.58848L237.612 3.54849L237.572 3.50851L237.532 3.46853L237.492 3.42854L237.452 3.38856L237.412 3.34858L237.372 3.3086L237.332 3.26861L237.292 3.22863L237.252 3.18865L237.212 3.14866L237.172 3.10868L237.132 3.0687L237.092 3.02872L237.052 2.98873L237.012 2.94875C236.084 2.01334 234.979 1.27112 233.763 0.764985C232.546 0.258852 231.241 -0.00115152 229.923 3.83359e-06H9.99839C4.47928 0.0399868 0 4.51808 0 10.0357V169.968C0 172.737 1.12982 175.245 2.94952 177.055L2.98952 177.095L3.02951 177.135L3.0695 177.175L3.1095 177.215L3.14949 177.255L3.18949 177.295L3.22948 177.335L3.26947 177.375L3.30947 177.415L3.34946 177.455L3.38945 177.494L3.42945 177.534L3.46944 177.574L3.50943 177.614L3.54943 177.654L3.58942 177.694L3.62941 177.734L3.66941 177.774L3.7094 177.814L3.7494 177.854L3.78939 177.894L3.82938 177.934L3.86938 177.974L3.90937 178.014L3.94936 178.054L3.98936 178.094L4.02935 178.134L4.06934 178.174L4.10934 178.214L4.14933 178.254L4.18932 178.294L4.22932 178.334L4.26931 178.374L4.30931 178.414L4.3493 178.454L4.38929 178.494L4.42929 178.534L4.46928 178.574L4.50927 178.614L4.54927 178.654L4.58926 178.694L4.62925 178.734L4.66925 178.774L4.70924 178.814L4.74923 178.854L4.78923 178.894L4.82922 178.934L4.86921 178.974L4.90921 179.014L4.9492 179.054L4.9892 179.094L5.02919 179.134L5.06918 179.174L5.10918 179.214L5.14917 179.254L5.18916 179.294L5.22916 179.334L5.26915 179.374L5.30914 179.414L5.34914 179.454L5.38913 179.494L5.42912 179.534L5.46912 179.574L5.50911 179.614L5.54911 179.654L5.5891 179.694L5.62909 179.734L5.66909 179.774L5.70908 179.814L5.74907 179.853L5.78907 179.893L5.82906 179.933L5.86905 179.973L5.90905 180.013L5.94904 180.053L5.98903 180.093L6.02903 180.133L6.06902 180.173L6.10902 180.213L6.14901 180.253L6.189 180.293L6.229 180.333L6.26899 180.373L6.30898 180.413L6.34898 180.453L6.38897 180.493L6.42896 180.533L6.46896 180.573L6.50895 180.613L6.54894 180.653L6.58894 180.693L6.62893 180.733L6.66892 180.773L6.70892 180.813L6.74891 180.853L6.78891 180.893L6.8289 180.933L6.86889 180.973L6.90889 181.013L6.94888 181.053L6.98887 181.093L7.02887 181.133L7.06886 181.173L7.10885 181.213L7.14885 181.253L7.18884 181.293L7.22883 181.333L7.26883 181.373L7.30882 181.413L7.34881 181.453L7.38881 181.493L7.4288 181.533L7.4688 181.573L7.50879 181.613L7.54878 181.653L7.58878 181.693L7.62877 181.733L7.66876 181.773L7.70876 181.813L7.74875 181.853L7.78874 181.893L7.82874 181.933L7.86873 181.973L7.90872 182.013L7.94872 182.053L7.98871 182.093L8.02871 182.133L8.0687 182.172L8.10869 182.212L8.14869 182.252L8.18868 182.292L8.22867 182.332L8.26867 182.372L8.30866 182.412L8.34865 182.452L8.38865 182.492L8.42864 182.532L8.46863 182.572L8.50863 182.612L8.54862 182.652L8.58862 182.692L8.62861 182.732L8.6686 182.772L8.7086 182.812L8.74859 182.852L8.78858 182.892L8.82858 182.932L8.86857 182.972L8.90856 183.012L8.94856 183.052L8.98855 183.092L9.02854 183.132L9.06854 183.172L9.10853 183.212L9.14852 183.252L9.18852 183.292L9.22851 183.332L9.26851 183.372L9.3085 183.412L9.34849 183.452L9.38849 183.492L9.42848 183.532L9.46847 183.572L9.50847 183.612L9.54846 183.652L9.58845 183.692L9.62845 183.732L9.66844 183.772L9.70843 183.812L9.74843 183.852L9.78842 183.892L9.82842 183.932L9.86841 183.972L9.9084 184.012L9.9484 184.052L9.98839 184.092L10.0284 184.132L10.0684 184.172L10.1084 184.212L10.1484 184.252L10.1884 184.292L10.2284 184.332L10.2683 184.372L10.3083 184.412L10.3483 184.452L10.3883 184.492L10.4283 184.531L10.4683 184.571L10.5083 184.611L10.5483 184.651L10.5883 184.691L10.6283 184.731L10.6683 184.771L10.7083 184.811L10.7483 184.851L10.7883 184.891L10.8283 184.931L10.8682 184.971L10.9082 185.011L10.9482 185.051C11.8763 185.987 12.9807 186.729 14.1974 187.235C15.4142 187.741 16.7192 188.001 18.0371 188H238.002C243.521 188 248 183.522 248 178.004V18.0323C248 15.2635 246.87 12.7546 245.05 10.9453H245.01Z"/></svg>
